<svg xmlns="http://www.w3.org/2000/svg" xmlns:xlink="http://www.w3.org/1999/xlink" width="1080" zoomAndPan="magnify" viewBox="0 0 810 809.999993" height="1080" preserveAspectRatio="xMidYMid meet" version="1.0"><defs><filter x="0%" y="0%" width="100%" height="100%" id="26240d654d"><feColorMatrix values="0 0 0 0 1 0 0 0 0 1 0 0 0 0 1 0 0 0 1 0" color-interpolation-filters="sRGB"/></filter><mask id="0a0ed4f0c0"><g filter="url(#26240d654d)"><rect x="-81" width="972" fill="#000000" y="-80.999999" height="971.999992" fill-opacity="0.749"/></g></mask><clipPath id="829ffdb417"><path d="M 2 2 L 273 2 L 273 51.679688 L 2 51.679688 Z M 2 2 " clip-rule="nonzero"/></clipPath><clipPath id="57777f7dc3"><rect x="0" width="274" y="0" height="52"/></clipPath><mask id="2b417c8874"><g filter="url(#26240d654d)"><rect x="-81" width="972" fill="#000000" y="-80.999999" height="971.999992" fill-opacity="0.749"/></g></mask><clipPath id="906d3c6095"><rect x="0" width="242" y="0" height="49"/></clipPath><mask id="d0f6456c12"><g filter="url(#26240d654d)"><rect x="-81" width="972" fill="#000000" y="-80.999999" height="971.999992" fill-opacity="0.749"/></g></mask><clipPath id="23cdeea98f"><path d="M 2 3 L 238.238281 3 L 238.238281 48 L 2 48 Z M 2 3 " clip-rule="nonzero"/></clipPath><clipPath id="3dd42e3b65"><rect x="0" width="239" y="0" height="49"/></clipPath><mask id="956cc0162f"><g filter="url(#26240d654d)"><rect x="-81" width="972" fill="#000000" y="-80.999999" height="971.999992" fill-opacity="0.749"/></g></mask><clipPath id="a1c860af92"><rect x="0" width="210" y="0" height="46"/></clipPath><mask id="e7f87c9173"><g filter="url(#26240d654d)"><rect x="-81" width="972" fill="#000000" y="-80.999999" height="971.999992" fill-opacity="0.749"/></g></mask><clipPath id="81f5489a5f"><rect x="0" width="210" y="0" height="36"/></clipPath><mask id="93bff3f1f3"><g filter="url(#26240d654d)"><rect x="-81" width="972" fill="#000000" y="-80.999999" height="971.999992" fill-opacity="0.749"/></g></mask><clipPath id="441dfda296"><rect x="0" width="103" y="0" height="18"/></clipPath><mask id="edba311171"><g filter="url(#26240d654d)"><rect x="-81" width="972" fill="#000000" y="-80.999999" height="971.999992" fill-opacity="0.749"/></g></mask><clipPath id="430b7ac146"><rect x="0" width="55" y="0" height="20"/></clipPath><mask id="9037d0c11e"><g filter="url(#26240d654d)"><rect x="-81" width="972" fill="#000000" y="-80.999999" height="971.999992" fill-opacity="0.749"/></g></mask><clipPath id="e2e3e9f98b"><rect x="0" width="407" y="0" height="90"/></clipPath><mask id="2af0fe699d"><g filter="url(#26240d654d)"><rect x="-81" width="972" fill="#000000" y="-80.999999" height="971.999992" fill-opacity="0.749"/></g></mask><clipPath id="1a22b46fd5"><rect x="0" width="27" y="0" height="20"/></clipPath><mask id="fd4ef15bb9"><g filter="url(#26240d654d)"><rect x="-81" width="972" fill="#000000" y="-80.999999" height="971.999992" fill-opacity="0.749"/></g></mask><clipPath id="a32108ce51"><rect x="0" width="33" y="0" height="65"/></clipPath><mask id="4bc6cc8bb5"><g filter="url(#26240d654d)"><rect x="-81" width="972" fill="#000000" y="-80.999999" height="971.999992" fill-opacity="0.749"/></g></mask><clipPath id="4a782fd68c"><rect x="0" width="30" y="0" height="423"/></clipPath><mask id="78c2da5d02"><g filter="url(#26240d654d)"><rect x="-81" width="972" fill="#000000" y="-80.999999" height="971.999992" fill-opacity="0.749"/></g></mask><clipPath id="bb92ae6399"><path d="M 3 3 L 53 3 L 53 19.921875 L 3 19.921875 Z M 3 3 " clip-rule="nonzero"/></clipPath><clipPath id="7853d10517"><rect x="0" width="55" y="0" height="20"/></clipPath><mask id="11f5942887"><g filter="url(#26240d654d)"><rect x="-81" width="972" fill="#000000" y="-80.999999" height="971.999992" fill-opacity="0.749"/></g></mask><clipPath id="8116ce589e"><path d="M 2 2 L 29.601562 2 L 29.601562 10 L 2 10 Z M 2 2 " clip-rule="nonzero"/></clipPath><clipPath id="949332360f"><rect x="0" width="30" y="0" height="11"/></clipPath><mask id="c6d52f17eb"><g filter="url(#26240d654d)"><rect x="-81" width="972" fill="#000000" y="-80.999999" height="971.999992" fill-opacity="0.749"/></g></mask><clipPath id="3a8bd7850a"><path d="M 2 2 L 29.601562 2 L 29.601562 11 L 2 11 Z M 2 2 " clip-rule="nonzero"/></clipPath><clipPath id="e609660ffc"><rect x="0" width="30" y="0" height="12"/></clipPath><mask id="9e68e72e28"><g filter="url(#26240d654d)"><rect x="-81" width="972" fill="#000000" y="-80.999999" height="971.999992" fill-opacity="0.749"/></g></mask><clipPath id="b748be85a3"><path d="M 2 1 L 29.601562 1 L 29.601562 10 L 2 10 Z M 2 1 " clip-rule="nonzero"/></clipPath><clipPath id="210f154618"><rect x="0" width="30" y="0" height="11"/></clipPath><mask id="d007459048"><g filter="url(#26240d654d)"><rect x="-81" width="972" fill="#000000" y="-80.999999" height="971.999992" fill-opacity="0.749"/></g></mask><clipPath id="27e5a3ba25"><rect x="0" width="39" y="0" height="23"/></clipPath><mask id="7ca1407d69"><g filter="url(#26240d654d)"><rect x="-81" width="972" fill="#000000" y="-80.999999" height="971.999992" fill-opacity="0.749"/></g></mask><clipPath id="5837cd3f16"><path d="M 1 0.480469 L 37 0.480469 L 37 36 L 1 36 Z M 1 0.480469 " clip-rule="nonzero"/></clipPath><clipPath id="c920e6f636"><rect x="0" width="39" y="0" height="39"/></clipPath><mask id="727d58ed95"><g filter="url(#26240d654d)"><rect x="-81" width="972" fill="#000000" y="-80.999999" height="971.999992" fill-opacity="0.749"/></g></mask><clipPath id="3d331c69da"><rect x="0" width="65" y="0" height="84"/></clipPath><mask id="ee2e60d646"><g filter="url(#26240d654d)"><rect x="-81" width="972" fill="#000000" y="-80.999999" height="971.999992" fill-opacity="0.749"/></g></mask><clipPath id="aacef41af2"><path d="M 4 2 L 275 2 L 275 51.679688 L 4 51.679688 Z M 4 2 " clip-rule="nonzero"/></clipPath><clipPath id="89c7ab0f1a"><rect x="0" width="278" y="0" height="52"/></clipPath><mask id="12a7693ab2"><g filter="url(#26240d654d)"><rect x="-81" width="972" fill="#000000" y="-80.999999" height="971.999992" fill-opacity="0.749"/></g></mask><clipPath id="6604f9f7c8"><rect x="0" width="33" y="0" height="322"/></clipPath><mask id="66e4cb0fe0"><g filter="url(#26240d654d)"><rect x="-81" width="972" fill="#000000" y="-80.999999" height="971.999992" fill-opacity="0.749"/></g></mask><clipPath id="5ab4d4f570"><rect x="0" width="65" y="0" height="84"/></clipPath><mask id="19cf7f2875"><g filter="url(#26240d654d)"><rect x="-81" width="972" fill="#000000" y="-80.999999" height="971.999992" fill-opacity="0.749"/></g></mask><clipPath id="8426b69b86"><path d="M 0.0390625 1 L 270 1 L 270 68 L 0.0390625 68 Z M 0.0390625 1 " clip-rule="nonzero"/></clipPath><clipPath id="402647955a"><rect x="0" width="271" y="0" height="71"/></clipPath><mask id="9d8a126f55"><g filter="url(#26240d654d)"><rect x="-81" width="972" fill="#000000" y="-80.999999" height="971.999992" fill-opacity="0.749"/></g></mask><clipPath id="a9052679b9"><path d="M 3 2 L 35.640625 2 L 35.640625 322 L 3 322 Z M 3 2 " clip-rule="nonzero"/></clipPath><clipPath id="3c0e8fcd3c"><rect x="0" width="36" y="0" height="325"/></clipPath><mask id="35cbdf1f4b"><g filter="url(#26240d654d)"><rect x="-81" width="972" fill="#000000" y="-80.999999" height="971.999992" fill-opacity="0.749"/></g></mask><clipPath id="aee34c5386"><path d="M 0.839844 1 L 270.601562 1 L 270.601562 68 L 0.839844 68 Z M 0.839844 1 " clip-rule="nonzero"/></clipPath><clipPath id="14828ac2fd"><rect x="0" width="271" y="0" height="71"/></clipPath><mask id="f2d33a9bb9"><g filter="url(#26240d654d)"><rect x="-81" width="972" fill="#000000" y="-80.999999" height="971.999992" fill-opacity="0.749"/></g></mask><clipPath id="3804b30c63"><rect x="0" width="64" y="0" height="84"/></clipPath><mask id="fcb60cc8c1"><g filter="url(#26240d654d)"><rect x="-81" width="972" fill="#000000" y="-80.999999" height="971.999992" fill-opacity="0.749"/></g></mask><clipPath id="d10103ff8b"><rect x="0" width="143" y="0" height="308"/></clipPath><mask id="d9f44e3e79"><g filter="url(#26240d654d)"><rect x="-81" width="972" fill="#000000" y="-80.999999" height="971.999992" fill-opacity="0.749"/></g></mask><clipPath id="e859ac8500"><rect x="0" width="161" y="0" height="307"/></clipPath><mask id="ba794028ff"><g filter="url(#26240d654d)"><rect x="-81" width="972" fill="#000000" y="-80.999999" height="971.999992" fill-opacity="0.749"/></g></mask><clipPath id="65c3a71a67"><rect x="0" width="147" y="0" height="324"/></clipPath><mask id="3d98fe1a19"><g filter="url(#26240d654d)"><rect x="-81" width="972" fill="#000000" y="-80.999999" height="971.999992" fill-opacity="0.749"/></g></mask><clipPath id="21656b74ad"><rect x="0" width="146" y="0" height="328"/></clipPath><clipPath id="922877b4bd"><path d="M 339 184 L 412 184 L 412 349 L 339 349 Z M 339 184 " clip-rule="nonzero"/></clipPath><clipPath id="a6164c01de"><path d="M 388.496094 184.53125 L 412.445312 191.96875 L 363.605469 349.253906 L 339.652344 341.816406 Z M 388.496094 184.53125 " clip-rule="nonzero"/></clipPath><clipPath id="7436d00022"><path d="M 388.496094 184.53125 L 411.804688 191.769531 L 363.171875 348.390625 L 339.859375 341.152344 Z M 388.496094 184.53125 " clip-rule="nonzero"/></clipPath><clipPath id="9066eb45a4"><path d="M 399 184 L 485 184 L 485 346 L 399 346 Z M 399 184 " clip-rule="nonzero"/></clipPath><clipPath id="f5c501a664"><path d="M 484.609375 336.015625 L 461.441406 345.621094 L 398.382812 193.476562 L 421.550781 183.875 Z M 484.609375 336.015625 " clip-rule="nonzero"/></clipPath><clipPath id="cdf6e0998a"><path d="M 484.609375 336.015625 L 462.0625 345.363281 L 399.269531 193.863281 L 421.816406 184.519531 Z M 484.609375 336.015625 " clip-rule="nonzero"/></clipPath><clipPath id="333e0d7bfb"><path d="M 396 143 L 473 143 L 473 223 L 396 223 Z M 396 143 " clip-rule="nonzero"/></clipPath><clipPath id="a30539af1f"><path d="M 503.011719 196.683594 L 442.335938 249.214844 L 396.371094 196.125 L 457.046875 143.59375 Z M 503.011719 196.683594 " clip-rule="nonzero"/></clipPath><clipPath id="81374a5ab4"><path d="M 472.671875 222.949219 L 396.371094 196.125 L 457.046875 143.59375 L 472.671875 222.949219 " clip-rule="nonzero"/></clipPath><clipPath id="0f5a6ad149"><path d="M 339 145 L 417 145 L 417 225 L 339 225 Z M 339 145 " clip-rule="nonzero"/></clipPath><clipPath id="2b195db98f"><path d="M 423.746094 158.417969 L 408.859375 237.28125 L 339.855469 224.253906 L 354.742188 145.390625 Z M 423.746094 158.417969 " clip-rule="nonzero"/></clipPath><clipPath id="fd8f3fbfd7"><path d="M 416.304688 197.847656 L 339.855469 224.253906 L 354.742188 145.390625 L 416.304688 197.847656 " clip-rule="nonzero"/></clipPath><clipPath id="07062dbdae"><path d="M 341 148 L 413 148 L 413 222 L 341 222 Z M 341 148 " clip-rule="nonzero"/></clipPath><clipPath id="9e0b299d8b"><path d="M 419.691406 160.855469 L 405.878906 234.019531 L 341.863281 221.933594 L 355.671875 148.769531 Z M 419.691406 160.855469 " clip-rule="nonzero"/></clipPath><clipPath id="f048542494"><path d="M 412.785156 197.4375 L 341.863281 221.933594 L 355.671875 148.769531 L 412.785156 197.4375 " clip-rule="nonzero"/></clipPath><clipPath id="7bbf487074"><path d="M 399 146 L 471 146 L 471 221 L 399 221 Z M 399 146 " clip-rule="nonzero"/></clipPath><clipPath id="5adc2ee4fd"><path d="M 498.316406 196.074219 L 442.023438 244.808594 L 399.382812 195.554688 L 455.671875 146.820312 Z M 498.316406 196.074219 " clip-rule="nonzero"/></clipPath><clipPath id="b2f0eb7586"><path d="M 470.167969 220.441406 L 399.382812 195.554688 L 455.671875 146.820312 L 470.167969 220.441406 " clip-rule="nonzero"/></clipPath><clipPath id="d1104cb5e0"><path d="M 342 184 L 412 184 L 412 346 L 342 346 Z M 342 184 " clip-rule="nonzero"/></clipPath><clipPath id="d94aa06d93"><path d="M 390.394531 184.53125 L 411.953125 191.226562 L 363.855469 346.113281 L 342.296875 339.421875 Z M 390.394531 184.53125 " clip-rule="nonzero"/></clipPath><clipPath id="851a4a074d"><path d="M 390.394531 184.53125 L 411.808594 191.179688 L 363.875 345.535156 L 342.464844 338.886719 Z M 390.394531 184.53125 " clip-rule="nonzero"/></clipPath><clipPath id="242eb37212"><path d="M 399 186 L 482 186 L 482 344 L 399 344 Z M 399 186 " clip-rule="nonzero"/></clipPath><clipPath id="d6eb15c3c1"><path d="M 481.867188 335.308594 L 461.015625 343.949219 L 398.914062 194.125 L 419.765625 185.480469 Z M 481.867188 335.308594 " clip-rule="nonzero"/></clipPath><clipPath id="f00d03f308"><path d="M 481.867188 335.308594 L 461.15625 343.890625 L 399.269531 194.582031 L 419.980469 186 Z M 481.867188 335.308594 " clip-rule="nonzero"/></clipPath></defs><rect x="-81" width="972" fill="#ffffff" y="-80.999999" height="971.999992" fill-opacity="1"/><rect x="-81" width="972" fill="#ffffff" y="-80.999999" height="971.999992" fill-opacity="1"/><rect x="-81" width="972" fill="#0e1b1b" y="-80.999999" height="971.999992" fill-opacity="1"/><g mask="url(#0a0ed4f0c0)"><g transform="matrix(1, 0, 0, 1, 90, 538)"><g clip-path="url(#57777f7dc3)"><g clip-path="url(#829ffdb417)"><path fill="#f4fff8" d="M 2.824219 17.378906 C 85.550781 63.796875 190.328125 61.203125 272.335938 17.378906 C 279.117188 13.285156 182.742188 2.664062 137.136719 2.664062 C 55.640625 2.664062 1.34375 10.769531 2.824219 17.378906 Z M 2.824219 17.378906 " fill-opacity="1" fill-rule="nonzero"/></g></g></g></g><g mask="url(#2b417c8874)"><g transform="matrix(1, 0, 0, 1, 284, 655)"><g clip-path="url(#906d3c6095)"><path fill="#f4fff8" d="M 1.960938 14.582031 C 1.960938 14.582031 1.210938 1.828125 20.632812 1.554688 C 40.054688 1.277344 209.816406 1.554688 222.488281 1.554688 C 235.160156 1.554688 238.316406 10.230469 238.207031 14.640625 C 237.9375 25.480469 150.617188 48.074219 150.589844 47.601562 L 34.890625 38.320312 C 23.914062 30.40625 8.375 30.566406 1.960938 14.582031 Z M 1.960938 14.582031 " fill-opacity="1" fill-rule="nonzero"/></g></g></g><g mask="url(#d0f6456c12)"><g transform="matrix(1, 0, 0, 1, 284, 665)"><g clip-path="url(#3dd42e3b65)"><g clip-path="url(#23cdeea98f)"><path fill="#f4fff8" d="M 2.042969 3.089844 L 2.042969 27.875 C 1.207031 54.023438 238.183594 55.3125 238.128906 27.875 L 238.128906 3.089844 C 238.351562 30.675781 1.566406 30.71875 2.042969 3.089844 Z M 2.042969 3.089844 " fill-opacity="1" fill-rule="nonzero"/></g></g></g></g><g mask="url(#956cc0162f)"><g transform="matrix(1, 0, 0, 1, 300, 633)"><g clip-path="url(#a1c860af92)"><path fill="#f4fff8" d="M 1.457031 18.066406 C 1.769531 13.550781 33.421875 1.835938 100.847656 1.835938 C 168.636719 1.835938 206.714844 11.160156 206.714844 18.410156 C 206.714844 20.164062 185.871094 34.398438 185.871094 34.398438 L 98.703125 42.78125 L 2.769531 27.183594 L 1.453125 18.066406 Z M 1.457031 18.066406 " fill-opacity="1" fill-rule="nonzero"/></g></g></g><g mask="url(#e7f87c9173)"><g transform="matrix(1, 0, 0, 1, 300, 649)"><g clip-path="url(#81f5489a5f)"><path fill="#f4fff8" d="M 1.488281 1.433594 L 1.488281 19.410156 C 1.863281 35.894531 206.730469 38.210938 206.679688 19.410156 L 206.679688 1.433594 C 206.601562 19.234375 1.621094 18.992188 1.488281 1.433594 Z M 1.488281 1.433594 " fill-opacity="1" fill-rule="nonzero"/></g></g></g><g mask="url(#93bff3f1f3)"><g transform="matrix(1, 0, 0, 1, 350, 636)"><g clip-path="url(#441dfda296)"><path fill="#f4fff8" d="M 100.15625 16.242188 C 100.15625 16.242188 71.1875 13.191406 64.328125 8.613281 C 57.46875 4.035156 58.992188 3.652344 51.941406 3.652344 C 44.890625 3.652344 46.414062 4.035156 39.554688 8.613281 C 32.691406 13.191406 3.726562 16.242188 3.726562 16.242188 " fill-opacity="1" fill-rule="nonzero"/></g></g></g><g mask="url(#edba311171)"><g transform="matrix(1, 0, 0, 1, 376, 624)"><g clip-path="url(#430b7ac146)"><path fill="#f4fff8" d="M 3.179688 1.121094 L 52.984375 1.195312 C 53.351562 3.144531 37.105469 17.46875 31.820312 17.1875 L 21.617188 17.128906 C 15.621094 17.316406 3.125 1.925781 3.179688 1.121094 Z M 3.179688 1.121094 " fill-opacity="1" fill-rule="nonzero"/></g></g></g><g mask="url(#9037d0c11e)"><g transform="matrix(1, 0, 0, 1, 200, 139)"><g clip-path="url(#e2e3e9f98b)"><path fill="#f4fff8" d="M 203.367188 1.640625 C 202.5625 1.640625 201.75 1.675781 200.984375 1.734375 C 200.078125 1.804688 199.246094 1.972656 198.414062 2.117188 C 193.4375 2.980469 189.933594 5.042969 189.933594 7.554688 L 189.933594 20.8125 C 174.882812 12.074219 156.277344 7.363281 142.957031 7.363281 C 125.167969 7.363281 115.90625 9.464844 94.550781 21.289062 C 76.792969 31.121094 71.882812 35.335938 59.484375 32.640625 C 47.085938 29.941406 41.179688 23.542969 34.710938 21.382812 C 28.242188 19.226562 18.546875 26.179688 17.941406 28.25 C 17.265625 30.542969 15.144531 27.675781 14.605469 26.058594 C 14.066406 24.4375 1.867188 31.375 2.40625 35.691406 C 2.945312 40.007812 13.433594 51.835938 14.984375 46.753906 C 16.46875 41.898438 18.53125 41.433594 20.417969 43.320312 C 22.324219 45.226562 29.34375 49.121094 30.421875 56.675781 C 31.5 64.226562 27.6875 66.367188 24.992188 64.210938 C 22.296875 62.050781 21.242188 61.027344 20.703125 58.867188 C 20.164062 56.710938 8.890625 62.113281 10.507812 63.730469 C 12.125 65.351562 15.308594 75.527344 19.082031 76.609375 C 22.855469 77.6875 22.894531 82.558594 22.894531 84.714844 C 22.894531 86.875 29.375 86.398438 29.375 85.859375 C 29.375 85.320312 29.851562 78.230469 29.851562 78.230469 C 29.851562 78.230469 42.300781 77.183594 41.761719 61.539062 C 41.222656 45.890625 32.554688 41.0625 36.328125 39.984375 C 40.101562 38.902344 58.941406 48.597656 75.113281 49.140625 C 91.285156 49.679688 113.183594 33.496094 142.289062 33.496094 C 163.886719 33.496094 181.988281 43.546875 189.933594 48.757812 L 189.933594 54.003906 C 189.933594 56.515625 193.4375 58.578125 198.414062 59.441406 C 199.246094 59.585938 200.078125 59.753906 200.988281 59.820312 C 201.75 59.878906 202.5625 59.917969 203.367188 59.917969 C 203.496094 59.917969 203.621094 59.917969 203.75 59.917969 L 204.417969 59.917969 C 205.457031 59.917969 206.496094 59.917969 207.464844 59.820312 C 213.609375 59.273438 218.234375 56.878906 218.234375 54.003906 L 218.234375 48.757812 C 226.179688 43.546875 244.28125 33.496094 265.878906 33.496094 C 294.984375 33.496094 316.882812 49.679688 333.054688 49.140625 C 349.226562 48.601562 368.0625 38.902344 371.835938 39.984375 C 375.609375 41.0625 366.945312 45.890625 366.40625 61.539062 C 365.867188 77.183594 378.316406 78.230469 378.316406 78.230469 C 378.316406 78.230469 378.792969 85.320312 378.792969 85.859375 C 378.792969 86.398438 385.273438 86.875 385.273438 84.714844 C 385.273438 82.558594 385.308594 77.6875 389.082031 76.609375 C 392.855469 75.53125 396.042969 65.351562 397.660156 63.730469 C 399.277344 62.113281 388.003906 56.710938 387.464844 58.867188 C 386.925781 61.027344 385.871094 62.050781 383.175781 64.210938 C 380.480469 66.367188 376.667969 64.226562 377.746094 56.675781 C 378.824219 49.121094 385.84375 45.226562 387.75 43.320312 C 389.636719 41.433594 391.601562 41.898438 393.085938 46.753906 C 394.636719 51.835938 405.21875 40.007812 405.757812 35.691406 C 406.296875 31.375 394.101562 24.4375 393.5625 26.058594 C 393.023438 27.675781 390.902344 30.542969 390.226562 28.25 C 389.617188 26.179688 379.925781 19.226562 373.457031 21.382812 C 366.988281 23.542969 361.078125 29.941406 348.679688 32.640625 C 336.285156 35.335938 331.375 31.121094 313.617188 21.289062 C 292.261719 9.464844 282.902344 7.363281 265.117188 7.363281 C 251.796875 7.363281 233.285156 12.074219 218.234375 20.8125 L 218.234375 7.554688 C 218.234375 4.675781 213.609375 2.28125 207.464844 1.734375 C 207.371094 1.726562 207.273438 1.742188 207.179688 1.734375 C 206.421875 1.667969 205.597656 1.648438 204.796875 1.640625 Z M 203.367188 1.640625 " fill-opacity="1" fill-rule="nonzero"/><path fill="#f4fff8" d="M 27.660156 29.175781 C 27.660156 29.175781 48.410156 40.507812 68.894531 40.507812 C 89.375 40.507812 113.09375 20.542969 140.582031 20.542969 C 164.308594 20.542969 185.15625 34.882812 197.242188 42.4375 " fill-opacity="1" fill-rule="nonzero"/><path fill="#f4fff8" d="M 380.503906 29.175781 C 380.503906 29.175781 359.753906 40.507812 339.269531 40.507812 C 318.789062 40.507812 295.070312 20.542969 267.582031 20.542969 C 243.855469 20.542969 223.007812 34.882812 210.921875 42.4375 " fill-opacity="1" fill-rule="nonzero"/></g></g></g><g mask="url(#2af0fe699d)"><g transform="matrix(1, 0, 0, 1, 391, 125)"><g clip-path="url(#1a22b46fd5)"><path fill="#f4fff8" d="M 2.570312 17.128906 L 2.570312 6.214844 C 10.148438 2.917969 16.019531 -1.136719 23.59375 6.214844 L 23.59375 16.066406 Z M 2.570312 17.128906 " fill-opacity="1" fill-rule="nonzero"/></g></g></g><g mask="url(#fd4ef15bb9)"><g transform="matrix(1, 0, 0, 1, 388, 138)"><g clip-path="url(#a32108ce51)"><path fill="#f4fff8" d="M 15.355469 1.558594 C 14.519531 1.558594 13.675781 1.597656 12.882812 1.660156 C 11.941406 1.730469 11.078125 1.90625 10.214844 2.054688 C 5.050781 2.949219 1.410156 5.085938 1.410156 7.691406 L 1.410156 55.859375 C 1.410156 58.464844 5.050781 60.601562 10.214844 61.496094 C 11.078125 61.648438 11.941406 61.820312 12.882812 61.894531 C 13.675781 61.953125 14.519531 61.992188 15.355469 61.992188 C 15.488281 61.992188 15.617188 61.992188 15.753906 61.992188 L 16.445312 61.992188 C 17.523438 61.992188 18.601562 61.992188 19.609375 61.894531 C 25.988281 61.324219 30.785156 58.84375 30.785156 55.859375 L 30.785156 7.691406 C 30.785156 4.707031 25.988281 2.226562 19.609375 1.660156 C 19.511719 1.648438 19.410156 1.667969 19.3125 1.660156 C 18.523438 1.589844 17.667969 1.570312 16.839844 1.558594 Z M 15.355469 1.558594 " fill-opacity="1" fill-rule="nonzero"/></g></g></g><g mask="url(#4bc6cc8bb5)"><g transform="matrix(1, 0, 0, 1, 388, 208)"><g clip-path="url(#4a782fd68c)"><path fill="#f4fff8" d="M 3.351562 417.660156 L 3.351562 2.292969 L 28.820312 2.152344 L 28.683594 420.472656 L 3.351562 417.65625 Z M 3.351562 417.660156 " fill-opacity="1" fill-rule="nonzero"/></g></g></g><g mask="url(#78c2da5d02)"><g transform="matrix(1, 0, 0, 1, 376, 606)"><g clip-path="url(#7853d10517)"><g clip-path="url(#bb92ae6399)"><path fill="#f4fff8" d="M 3.179688 19.089844 L 52.984375 19.011719 C 53.351562 17.066406 37.105469 2.742188 31.820312 3.023438 L 21.617188 3.082031 C 15.621094 2.894531 3.125 18.285156 3.179688 19.089844 Z M 3.179688 19.089844 " fill-opacity="1" fill-rule="nonzero"/></g></g></g></g><g mask="url(#11f5942887)"><g transform="matrix(1, 0, 0, 1, 388, 201)"><g clip-path="url(#949332360f)"><g clip-path="url(#8116ce589e)"><path fill="#f4fff8" d="M 2.742188 9.75 L 29.421875 9.75 C 29.421875 9.75 24.617188 2.542969 15.730469 2.542969 C 6.847656 2.542969 2.742188 9.394531 2.742188 9.75 Z M 2.742188 9.75 " fill-opacity="1" fill-rule="nonzero"/></g></g></g></g><g mask="url(#c6d52f17eb)"><g transform="matrix(1, 0, 0, 1, 388, 186)"><g clip-path="url(#e609660ffc)"><g clip-path="url(#3a8bd7850a)"><path fill="#f4fff8" d="M 2.742188 10.128906 L 29.421875 10.128906 C 29.421875 10.128906 24.617188 2.464844 15.730469 2.464844 C 6.847656 2.464844 2.742188 9.75 2.742188 10.128906 Z M 2.742188 10.128906 " fill-opacity="1" fill-rule="nonzero"/></g></g></g></g><g mask="url(#9e68e72e28)"><g transform="matrix(1, 0, 0, 1, 388, 210)"><g clip-path="url(#210f154618)"><g clip-path="url(#b748be85a3)"><path fill="#f4fff8" d="M 2.742188 1.453125 L 29.421875 1.453125 C 29.421875 1.453125 24.617188 9.117188 15.730469 9.117188 C 6.847656 9.117188 2.742188 1.832031 2.742188 1.453125 Z M 2.742188 1.453125 " fill-opacity="1" fill-rule="nonzero"/></g></g></g></g><g mask="url(#d007459048)"><g transform="matrix(1, 0, 0, 1, 385, 113)"><g clip-path="url(#27e5a3ba25)"><path fill="#f4fff8" d="M 11.761719 2.035156 L 11.761719 10.144531 C 11.761719 10.144531 11.257812 10.402344 11.191406 10.429688 C 11.171875 10.4375 11.023438 10.421875 11 10.429688 C 7.859375 10.988281 3.464844 12.082031 2.042969 13.671875 C 1.472656 14.308594 1.625 14.738281 2.042969 15.292969 C 2.882812 16.402344 10.253906 19.871094 18.527344 19.871094 C 18.683594 19.871094 18.847656 19.875 19.003906 19.871094 C 19.191406 19.878906 19.390625 19.871094 19.578125 19.871094 C 27.851562 19.871094 35.203125 16.402344 36.0625 15.292969 C 36.746094 14.414062 36.53125 14.253906 36.0625 13.671875 C 35.171875 12.574219 30.222656 10.980469 27.105469 10.429688 C 27.09375 10.425781 27.019531 10.433594 27.007812 10.429688 C 26.921875 10.394531 26.34375 10.144531 26.34375 10.144531 L 26.34375 2.035156 Z M 11.761719 2.035156 " fill-opacity="1" fill-rule="nonzero"/></g></g></g><g mask="url(#7ca1407d69)"><g transform="matrix(1, 0, 0, 1, 385, 84)"><g clip-path="url(#c920e6f636)"><g clip-path="url(#5837cd3f16)"><path fill="#f4fff8" d="M 36.664062 18.269531 C 36.664062 18.84375 36.636719 19.421875 36.578125 19.992188 C 36.523438 20.566406 36.4375 21.136719 36.324219 21.703125 C 36.214844 22.265625 36.074219 22.824219 35.90625 23.375 C 35.738281 23.929688 35.546875 24.46875 35.324219 25.003906 C 35.105469 25.535156 34.859375 26.054688 34.585938 26.5625 C 34.316406 27.070312 34.019531 27.566406 33.699219 28.042969 C 33.382812 28.523438 33.039062 28.984375 32.671875 29.433594 C 32.308594 29.878906 31.921875 30.304688 31.515625 30.710938 C 31.109375 31.117188 30.679688 31.503906 30.238281 31.871094 C 29.792969 32.238281 29.328125 32.578125 28.851562 32.898438 C 28.371094 33.21875 27.878906 33.515625 27.371094 33.789062 C 26.863281 34.058594 26.34375 34.304688 25.8125 34.527344 C 25.28125 34.746094 24.738281 34.941406 24.1875 35.105469 C 23.636719 35.273438 23.078125 35.414062 22.515625 35.527344 C 21.949219 35.640625 21.378906 35.722656 20.808594 35.78125 C 20.234375 35.835938 19.660156 35.863281 19.085938 35.863281 C 18.507812 35.863281 17.933594 35.835938 17.363281 35.78125 C 16.789062 35.722656 16.21875 35.640625 15.65625 35.527344 C 15.089844 35.414062 14.53125 35.273438 13.980469 35.105469 C 13.429688 34.941406 12.890625 34.746094 12.359375 34.527344 C 11.824219 34.304688 11.304688 34.058594 10.796875 33.789062 C 10.289062 33.515625 9.796875 33.21875 9.316406 32.898438 C 8.839844 32.578125 8.378906 32.238281 7.933594 31.871094 C 7.488281 31.503906 7.0625 31.117188 6.65625 30.710938 C 6.246094 30.304688 5.859375 29.878906 5.496094 29.433594 C 5.128906 28.984375 4.789062 28.523438 4.46875 28.042969 C 4.148438 27.566406 3.851562 27.070312 3.582031 26.5625 C 3.308594 26.054688 3.0625 25.535156 2.84375 25.003906 C 2.625 24.46875 2.429688 23.929688 2.261719 23.375 C 2.09375 22.824219 1.957031 22.265625 1.84375 21.703125 C 1.730469 21.136719 1.648438 20.566406 1.589844 19.992188 C 1.535156 19.421875 1.503906 18.84375 1.503906 18.269531 C 1.503906 17.691406 1.535156 17.117188 1.589844 16.542969 C 1.648438 15.972656 1.730469 15.402344 1.84375 14.835938 C 1.957031 14.269531 2.09375 13.710938 2.261719 13.160156 C 2.429688 12.609375 2.625 12.066406 2.84375 11.535156 C 3.0625 11.003906 3.308594 10.484375 3.582031 9.972656 C 3.851562 9.464844 4.148438 8.972656 4.46875 8.492188 C 4.789062 8.015625 5.128906 7.550781 5.496094 7.105469 C 5.859375 6.660156 6.246094 6.234375 6.65625 5.828125 C 7.0625 5.417969 7.488281 5.03125 7.933594 4.667969 C 8.378906 4.300781 8.839844 3.957031 9.316406 3.640625 C 9.796875 3.320312 10.289062 3.023438 10.796875 2.75 C 11.304688 2.480469 11.824219 2.234375 12.359375 2.011719 C 12.890625 1.792969 13.429688 1.597656 13.980469 1.429688 C 14.53125 1.265625 15.089844 1.125 15.65625 1.011719 C 16.21875 0.898438 16.789062 0.816406 17.363281 0.757812 C 17.933594 0.703125 18.507812 0.671875 19.085938 0.671875 C 19.660156 0.671875 20.234375 0.703125 20.808594 0.757812 C 21.378906 0.816406 21.949219 0.898438 22.515625 1.011719 C 23.078125 1.125 23.636719 1.265625 24.1875 1.429688 C 24.738281 1.597656 25.28125 1.792969 25.8125 2.011719 C 26.34375 2.234375 26.863281 2.480469 27.371094 2.75 C 27.878906 3.023438 28.371094 3.320312 28.851562 3.640625 C 29.328125 3.957031 29.792969 4.300781 30.238281 4.667969 C 30.679688 5.03125 31.109375 5.417969 31.515625 5.828125 C 31.921875 6.234375 32.308594 6.660156 32.671875 7.105469 C 33.039062 7.550781 33.382812 8.015625 33.699219 8.492188 C 34.019531 8.972656 34.316406 9.464844 34.585938 9.972656 C 34.859375 10.484375 35.105469 11.003906 35.324219 11.535156 C 35.546875 12.066406 35.738281 12.609375 35.90625 13.160156 C 36.074219 13.710938 36.214844 14.269531 36.324219 14.835938 C 36.4375 15.402344 36.523438 15.972656 36.578125 16.542969 C 36.636719 17.117188 36.664062 17.691406 36.664062 18.269531 Z M 36.664062 18.269531 " fill-opacity="1" fill-rule="nonzero"/></g></g></g></g><g mask="url(#727d58ed95)"><g transform="matrix(1, 0, 0, 1, 550, 201)"><g clip-path="url(#3d331c69da)"><path fill="#f4fff8" d="M 29.289062 2.308594 C 28.707031 7.460938 28.601562 12.609375 29.289062 17.761719 C 29.289062 17.761719 19.570312 17.625 19.570312 19.859375 C 19.570312 22.09375 20.785156 62.546875 17.28125 66.59375 C 13.777344 70.640625 11.5625 69.800781 9.945312 67.644531 C 8.328125 65.484375 3.527344 65.800781 2.988281 66.878906 C 2.449219 67.960938 1.269531 74.574219 4.703125 76.800781 C 9.5 79.90625 21.445312 79.816406 22.523438 68.214844 C 23.601562 56.617188 23.570312 46.660156 28.050781 46.660156 C 29.667969 46.660156 29.574219 52.1875 29.574219 58.390625 C 29.574219 64.597656 29.03125 66.199219 27.953125 67.546875 C 26.875 68.898438 27.144531 81.855469 27.953125 81.855469 L 36.054688 81.855469 C 36.863281 81.855469 37.132812 68.898438 36.054688 67.546875 C 34.976562 66.199219 34.433594 64.597656 34.433594 58.390625 C 34.433594 52.1875 33.675781 46.660156 35.292969 46.660156 C 40.152344 46.660156 39.550781 55.566406 40.628906 67.167969 C 41.707031 78.765625 52.867188 79.070312 58.257812 77.179688 C 63.644531 75.292969 61.03125 67.507812 60.542969 66.402344 C 59.8125 64.753906 56.632812 66.152344 54.636719 67.355469 C 52.328125 68.75 50.039062 70.355469 46.535156 66.308594 C 43.03125 62.261719 42.722656 22.09375 42.722656 19.859375 C 42.722656 17.625 33.863281 17.761719 33.863281 17.761719 C 33.636719 12.609375 32.914062 7.460938 33.863281 2.308594 C 31.546875 3.578125 30.355469 3.042969 29.289062 2.308594 Z M 31.765625 20.90625 C 34.351562 20.90625 36.433594 21.363281 36.433594 21.957031 L 36.433594 29.207031 C 36.433594 29.796875 34.351562 30.253906 31.765625 30.253906 C 29.179688 30.253906 27.097656 29.796875 27.097656 29.207031 L 27.097656 21.957031 C 27.097656 21.363281 29.179688 20.90625 31.765625 20.90625 Z M 31.765625 20.90625 " fill-opacity="1" fill-rule="nonzero"/></g></g></g><g mask="url(#ee2e60d646)"><g transform="matrix(1, 0, 0, 1, 445, 538)"><g clip-path="url(#89c7ab0f1a)"><g clip-path="url(#aacef41af2)"><path fill="#f4fff8" d="M 4.203125 17.378906 C 86.929688 63.796875 191.707031 61.203125 273.71875 17.378906 C 280.496094 13.285156 184.121094 2.664062 138.515625 2.664062 C 57.019531 2.664062 2.722656 10.769531 4.203125 17.378906 Z M 4.203125 17.378906 " fill-opacity="1" fill-rule="nonzero"/></g></g></g></g><g mask="url(#12a7693ab2)"><g transform="matrix(1, 0, 0, 1, 566, 268)"><g clip-path="url(#6604f9f7c8)"><path fill="#f4fff8" d="M 25.1875 1.039062 C 46.867188 22.902344 6.707031 14.105469 5.28125 18.335938 L 3.117188 319.921875 " fill-opacity="1" fill-rule="nonzero"/></g></g></g><g mask="url(#66e4cb0fe0)"><g transform="matrix(1, 0, 0, 1, 193, 201)"><g clip-path="url(#5ab4d4f570)"><path fill="#f4fff8" d="M 35.914062 2.308594 C 36.496094 7.460938 36.601562 12.609375 35.914062 17.761719 C 35.914062 17.761719 45.636719 17.625 45.636719 19.859375 C 45.636719 22.09375 44.417969 62.546875 47.921875 66.59375 C 51.425781 70.640625 53.640625 69.800781 55.257812 67.644531 C 56.875 65.484375 61.675781 65.800781 62.214844 66.878906 C 62.753906 67.960938 63.9375 74.574219 60.5 76.800781 C 55.703125 79.90625 43.757812 79.816406 42.679688 68.214844 C 41.601562 56.617188 41.632812 46.660156 37.152344 46.660156 C 35.539062 46.660156 35.628906 52.1875 35.628906 58.390625 C 35.628906 64.597656 36.171875 66.199219 37.25 67.546875 C 38.328125 68.898438 38.058594 81.855469 37.25 81.855469 L 29.148438 81.855469 C 28.339844 81.855469 28.070312 68.898438 29.148438 67.546875 C 30.226562 66.199219 30.769531 64.597656 30.769531 58.390625 C 30.769531 52.1875 31.53125 46.660156 29.914062 46.660156 C 25.050781 46.660156 25.65625 55.566406 24.578125 67.167969 C 23.5 78.765625 12.339844 79.070312 6.949219 77.179688 C 1.558594 75.292969 4.175781 67.507812 4.660156 66.402344 C 5.390625 64.753906 8.570312 66.152344 10.570312 67.355469 C 12.878906 68.75 15.164062 70.355469 18.667969 66.308594 C 22.171875 62.261719 22.480469 22.09375 22.480469 19.859375 C 22.480469 17.625 31.339844 17.761719 31.339844 17.761719 C 31.566406 12.609375 32.292969 7.460938 31.339844 2.308594 C 33.65625 3.578125 34.851562 3.042969 35.914062 2.308594 Z M 33.4375 20.90625 C 30.851562 20.90625 28.769531 21.363281 28.769531 21.957031 L 28.769531 29.207031 C 28.769531 29.796875 30.851562 30.253906 33.4375 30.253906 C 36.023438 30.253906 38.105469 29.796875 38.105469 29.207031 L 38.105469 21.957031 C 38.105469 21.363281 36.023438 20.90625 33.4375 20.90625 Z M 33.4375 20.90625 " fill-opacity="1" fill-rule="nonzero"/></g></g></g><g mask="url(#19cf7f2875)"><g transform="matrix(1, 0, 0, 1, 449, 554)"><g clip-path="url(#402647955a)"><g clip-path="url(#8426b69b86)"><path fill="#f4fff8" d="M 0.203125 1.0625 C 90.476562 41.003906 187.707031 33.015625 269.71875 1.0625 C 267.871094 10.390625 221.542969 67.617188 131.28125 67.613281 C 42.242188 67.613281 0.207031 7.539062 0.207031 1.0625 Z M 0.203125 1.0625 " fill-opacity="1" fill-rule="nonzero"/></g></g></g></g><g mask="url(#9d8a126f55)"><g transform="matrix(1, 0, 0, 1, 201, 265)"><g clip-path="url(#3c0e8fcd3c)"><g clip-path="url(#a9052679b9)"><path fill="#f4fff8" d="M 10.730469 2.976562 C -13.367188 24.84375 31.269531 16.046875 32.855469 20.277344 L 35.257812 321.859375 " fill-opacity="1" fill-rule="nonzero"/></g></g></g></g><g mask="url(#35cbdf1f4b)"><g transform="matrix(1, 0, 0, 1, 93, 554)"><g clip-path="url(#14828ac2fd)"><g clip-path="url(#aee34c5386)"><path fill="#f4fff8" d="M 0.882812 1.0625 C 91.152344 41.003906 188.382812 33.015625 270.394531 1.0625 C 268.550781 10.390625 222.226562 67.617188 131.960938 67.613281 C 42.921875 67.613281 0.882812 7.539062 0.882812 1.0625 Z M 0.882812 1.0625 " fill-opacity="1" fill-rule="nonzero"/></g></g></g></g><g mask="url(#f2d33a9bb9)"><g transform="matrix(1, 0, 0, 1, 195, 198)"><g clip-path="url(#3804b30c63)"><path fill="#f4fff8" d="M 29.421875 3.402344 C 28.839844 8.554688 28.734375 13.703125 29.421875 18.855469 C 29.421875 18.855469 19.703125 18.71875 19.703125 20.953125 C 19.703125 23.1875 20.921875 63.640625 17.417969 67.6875 C 13.914062 71.734375 11.695312 70.894531 10.078125 68.738281 C 8.460938 66.578125 3.664062 66.894531 3.125 67.976562 C 2.585938 69.054688 1.402344 75.667969 4.839844 77.894531 C 9.632812 81 21.578125 80.910156 22.65625 69.308594 C 23.734375 57.710938 23.703125 47.753906 28.183594 47.753906 C 29.800781 47.753906 29.707031 53.28125 29.707031 59.484375 C 29.707031 65.691406 29.167969 67.292969 28.089844 68.640625 C 27.011719 69.992188 27.28125 82.949219 28.089844 82.949219 L 36.1875 82.949219 C 36.996094 82.949219 37.265625 69.992188 36.1875 68.640625 C 35.109375 67.292969 34.570312 65.691406 34.570312 59.484375 C 34.570312 53.28125 33.808594 47.753906 35.425781 47.753906 C 40.289062 47.753906 39.683594 56.660156 40.761719 68.261719 C 41.839844 79.859375 53 80.164062 58.390625 78.277344 C 63.78125 76.386719 61.164062 68.601562 60.675781 67.496094 C 59.949219 65.847656 56.769531 67.246094 54.769531 68.453125 C 52.460938 69.84375 50.175781 71.449219 46.671875 67.402344 C 43.167969 63.355469 42.859375 23.1875 42.859375 20.953125 C 42.859375 18.71875 33.996094 18.855469 33.996094 18.855469 C 33.773438 13.703125 33.046875 8.554688 33.996094 3.402344 C 31.679688 4.671875 30.488281 4.136719 29.421875 3.402344 Z M 31.902344 22 C 34.488281 22 36.570312 22.457031 36.570312 23.050781 L 36.570312 30.300781 C 36.570312 30.894531 34.488281 31.347656 31.902344 31.347656 C 29.3125 31.347656 27.230469 30.894531 27.230469 30.300781 L 27.230469 23.050781 C 27.230469 22.457031 29.3125 22 31.902344 22 Z M 31.902344 22 " fill-opacity="1" fill-rule="nonzero"/></g></g></g><g mask="url(#fcb60cc8c1)"><g transform="matrix(1, 0, 0, 1, 81, 264)"><g clip-path="url(#d10103ff8b)"><path fill="#f4fff8" d="M 120.121094 6.300781 C 91.476562 17.195312 131.316406 25.828125 130.839844 30.261719 L 7.054688 305.226562 " fill-opacity="1" fill-rule="nonzero"/></g></g></g><g mask="url(#d9f44e3e79)"><g transform="matrix(1, 0, 0, 1, 418, 261)"><g clip-path="url(#e859ac8500)"><path fill="#f4fff8" d="M 140.417969 6.082031 C 112.546875 17.375 151.011719 25.292969 150.492188 29.703125 L 27.175781 304.878906 " fill-opacity="1" fill-rule="nonzero"/></g></g></g><g mask="url(#ba794028ff)"><g transform="matrix(1, 0, 0, 1, 225, 262)"><g clip-path="url(#65c3a71a67)"><path fill="#f4fff8" d="M 9.566406 11.121094 C -3.722656 39.882812 32.03125 17.234375 34.894531 20.816406 L 142.929688 311.40625 " fill-opacity="1" fill-rule="nonzero"/></g></g></g><g mask="url(#3d98fe1a19)"><g transform="matrix(1, 0, 0, 1, 582, 260)"><g clip-path="url(#21656b74ad)"><path fill="#f4fff8" d="M 8.992188 11.851562 C -4.226562 40.808594 31.496094 18.082031 34.375 21.699219 L 143.375 314.945312 " fill-opacity="1" fill-rule="nonzero"/></g></g></g><g clip-path="url(#922877b4bd)"><g clip-path="url(#a6164c01de)"><g clip-path="url(#7436d00022)"><path fill="#131112" d="M 388.496094 184.53125 L 411.648438 191.71875 L 363.054688 348.207031 L 339.902344 341.015625 Z M 388.496094 184.53125 " fill-opacity="1" fill-rule="nonzero"/></g></g></g><g clip-path="url(#9066eb45a4)"><g clip-path="url(#f5c501a664)"><g clip-path="url(#cdf6e0998a)"><path fill="#131112" d="M 484.609375 336.015625 L 462.214844 345.300781 L 399.476562 193.929688 L 421.871094 184.648438 Z M 484.609375 336.015625 " fill-opacity="1" fill-rule="nonzero"/></g></g></g><g clip-path="url(#333e0d7bfb)"><g clip-path="url(#a30539af1f)"><g clip-path="url(#81374a5ab4)"><path fill="#131112" d="M 503.011719 196.683594 L 442.335938 249.214844 L 396.371094 196.125 L 457.046875 143.59375 Z M 503.011719 196.683594 " fill-opacity="1" fill-rule="nonzero"/></g></g></g><g clip-path="url(#0f5a6ad149)"><g clip-path="url(#2b195db98f)"><g clip-path="url(#fd8f3fbfd7)"><path fill="#131112" d="M 423.746094 158.417969 L 408.859375 237.28125 L 339.855469 224.253906 L 354.742188 145.390625 Z M 423.746094 158.417969 " fill-opacity="1" fill-rule="nonzero"/></g></g></g><g clip-path="url(#07062dbdae)"><g clip-path="url(#9e0b299d8b)"><g clip-path="url(#f048542494)"><path fill="#f4fff8" d="M 419.691406 160.855469 L 405.878906 234.019531 L 341.863281 221.933594 L 355.671875 148.769531 Z M 419.691406 160.855469 " fill-opacity="1" fill-rule="nonzero"/></g></g></g><g clip-path="url(#7bbf487074)"><g clip-path="url(#5adc2ee4fd)"><g clip-path="url(#b2f0eb7586)"><path fill="#f4fff8" d="M 498.316406 196.074219 L 442.023438 244.808594 L 399.382812 195.554688 L 455.671875 146.820312 Z M 498.316406 196.074219 " fill-opacity="1" fill-rule="nonzero"/></g></g></g><g clip-path="url(#d1104cb5e0)"><g clip-path="url(#d94aa06d93)"><g clip-path="url(#851a4a074d)"><path fill="#f4fff8" d="M 390.394531 184.53125 L 411.953125 191.226562 L 364.101562 345.316406 L 342.546875 338.621094 Z M 390.394531 184.53125 " fill-opacity="1" fill-rule="nonzero"/></g></g></g><g clip-path="url(#242eb37212)"><g clip-path="url(#d6eb15c3c1)"><g clip-path="url(#f00d03f308)"><path fill="#f4fff8" d="M 481.867188 335.308594 L 461.015625 343.949219 L 399.234375 194.898438 L 420.085938 186.253906 Z M 481.867188 335.308594 " fill-opacity="1" fill-rule="nonzero"/></g></g></g></svg>